<svg xmlns="http://www.w3.org/2000/svg" width="171" height="56" viewBox="0 0 171 56"><path fill="#222" d="M171 40.71c-4.78 0-9.26 1.85-12.61 5.21l-2.02 2.02a13.86 13.86 0 0 1-19.61 0l-2.02-2.02a17.68 17.68 0 0 0-12.6-5.21c-4.78 0-9.25 1.85-12.6 5.21l-2.03 2.02a13.7 13.7 0 0 1-9.8 4.05 13.7 13.7 0 0 1-9.8-4.05l-2.02-2.02a17.68 17.68 0 0 0-12.6-5.21c-4.78 0-9.25 1.85-12.6 5.21l-2.03 2.02a13.85 13.85 0 0 1-19.6 0l-2.02-2.02a17.8 17.8 0 0 0-25.2 0L9.8 47.94a13.8 13.8 0 0 1-9.8 4.07v3.97c4.56 0 9.13-1.75 12.6-5.23l2.02-2.02a13.85 13.85 0 0 1 19.6 0l2.03 2.02a17.8 17.8 0 0 0 25.2 0l2.03-2.02a13.75 13.75 0 0 1 9.8-4.05c3.71 0 7.2 1.44 9.8 4.05l2.02 2.02a17.68 17.68 0 0 0 12.6 5.21c4.78 0 9.25-1.85 12.6-5.21l2.03-2.02a13.75 13.75 0 0 1 9.8-4.05c3.71 0 7.2 1.44 9.8 4.05l2.02 2.02a17.8 17.8 0 0 0 25.2 0l2.03-2.02a13.76 13.76 0 0 1 9.8-4.05zm0-19.86c-4.78 0-9.26 1.85-12.61 5.22l-2.02 2.02a13.86 13.86 0 0 1-19.61 0l-2.02-2.02a17.65 17.65 0 0 0-12.6-5.22c-4.78 0-9.25 1.85-12.6 5.22l-2.03 2.02a13.75 13.75 0 0 1-9.8 4.05c-3.71 0-7.2-1.44-9.8-4.05l-2.02-2.02a17.65 17.65 0 0 0-12.6-5.22c-4.78 0-9.25 1.85-12.6 5.22l-2.03 2.02a13.85 13.85 0 0 1-19.6 0l-2.02-2.02a17.8 17.8 0 0 0-25.2 0L9.8 28.09a13.8 13.8 0 0 1-9.8 4.06v3.98c4.56 0 9.13-1.75 12.6-5.23l2.02-2.03a13.87 13.87 0 0 1 19.6 0l2.03 2.03a17.8 17.8 0 0 0 25.2 0l2.03-2.03a13.75 13.75 0 0 1 9.8-4.05c3.71 0 7.2 1.44 9.8 4.05l2.02 2.03a17.68 17.68 0 0 0 12.6 5.21c4.78 0 9.25-1.85 12.6-5.21l2.03-2.03a13.75 13.75 0 0 1 9.8-4.05c3.71 0 7.2 1.44 9.8 4.05l2.02 2.03a17.8 17.8 0 0 0 25.2 0l2.03-2.03a13.76 13.76 0 0 1 9.8-4.05zM171 1c-4.78 0-9.26 1.85-12.61 5.21l-2.02 2.03a13.87 13.87 0 0 1-19.61 0l-2.02-2.03A17.68 17.68 0 0 0 122.14 1c-4.78 0-9.25 1.85-12.6 5.21l-2.03 2.03a13.75 13.75 0 0 1-9.8 4.05c-3.71 0-7.2-1.44-9.8-4.05L85.9 6.21A17.68 17.68 0 0 0 73.29 1c-4.78 0-9.25 1.85-12.6 5.21l-2.03 2.03a13.87 13.87 0 0 1-19.6 0l-2.02-2.03a17.82 17.82 0 0 0-25.2 0L9.8 8.24a13.8 13.8 0 0 1-9.8 4.06v3.97c4.56 0 9.13-1.74 12.6-5.22l2.02-2.03a13.85 13.85 0 0 1 19.6 0l2.03 2.03a17.82 17.82 0 0 0 25.2 0l2.03-2.03a13.75 13.75 0 0 1 9.8-4.05c3.71 0 7.2 1.44 9.8 4.05l2.02 2.03a17.68 17.68 0 0 0 12.6 5.21c4.78 0 9.25-1.85 12.6-5.21l2.03-2.03a13.75 13.75 0 0 1 9.8-4.05c3.71 0 7.2 1.44 9.8 4.05l2.02 2.03a17.83 17.83 0 0 0 25.2 0l2.03-2.03a13.76 13.76 0 0 1 9.8-4.05z"/></svg>